<svg width="48" height="48" viewBox="0 0 48 48" fill="none" xmlns="http://www.w3.org/2000/svg">
<g filter="url(#filter0_d)">
<path opacity="0.5" d="M24 0.5C34.7696 0.5 43.5 9.23045 43.5 20C43.5 30.7696 34.7696 39.5 24 39.5C13.2304 39.5 4.5 30.7696 4.5 20C4.5 9.23045 13.2304 0.5 24 0.5Z" stroke="#D8BFFF"/>
<path fill-rule="evenodd" clip-rule="evenodd" d="M24 18.1526L20.311 21.8602C20.1255 22.0466 19.8247 22.0466 19.6392 21.8602C19.4536 21.6737 19.4536 21.3714 19.6392 21.185L23.6641 17.1398C23.8496 16.9534 24.1504 16.9534 24.3359 17.1398L28.3608 21.185C28.5464 21.3714 28.5464 21.6737 28.3608 21.8602C28.1753 22.0466 27.8745 22.0466 27.689 21.8602L24 18.1526Z" fill="white"/>
</g>
<defs>
<filter id="filter0_d" x="0" y="0" width="48" height="48" filterUnits="userSpaceOnUse" color-interpolation-filters="sRGB">
<feFlood flood-opacity="0" result="BackgroundImageFix"/>
<feColorMatrix in="SourceAlpha" type="matrix" values="0 0 0 0 0 0 0 0 0 0 0 0 0 0 0 0 0 0 127 0"/>
<feOffset dy="4"/>
<feGaussianBlur stdDeviation="2"/>
<feColorMatrix type="matrix" values="0 0 0 0 0 0 0 0 0 0 0 0 0 0 0 0 0 0 0.25 0"/>
<feBlend mode="normal" in2="BackgroundImageFix" result="effect1_dropShadow"/>
<feBlend mode="normal" in="SourceGraphic" in2="effect1_dropShadow" result="shape"/>
</filter>
</defs>
</svg>
